<svg width="24" height="24" viewBox="0 0 24 24" fill="none" xmlns="http://www.w3.org/2000/svg">
<g id="heroicons:paint-brush-solid">
<path id="Vector" fill-rule="evenodd" clip-rule="evenodd" d="M20.5989 1.5C20.2229 1.5 19.8559 1.611 19.5439 1.82L14.4639 5.205C13.1895 6.05551 12.0239 7.05862 10.9929 8.192C13.1098 9.1871 14.8128 10.8901 15.8079 13.007C16.9414 11.9757 17.9445 10.8097 18.7949 9.535L22.1809 4.456C22.3716 4.16961 22.481 3.83687 22.4975 3.49321C22.514 3.14956 22.437 2.80787 22.2746 2.50453C22.1123 2.20119 21.8707 1.94756 21.5756 1.77067C21.2805 1.59377 20.943 1.50023 20.5989 1.5ZM12.2989 15.525C12.9542 15.1604 13.5873 14.7574 14.1949 14.318C13.7911 13.2972 13.1823 12.3701 12.4061 11.5939C11.6298 10.8176 10.7027 10.2088 9.68193 9.805C9.24257 10.4123 8.83954 11.0451 8.47493 11.7L8.19693 12.2C9.05308 12.4463 9.83263 12.9061 10.4625 13.5361C11.0923 14.1661 11.5519 14.9458 11.7979 15.802L12.2989 15.525ZM6.74993 13.5C5.75537 13.5 4.80155 13.8951 4.09828 14.5983C3.39502 15.3016 2.99993 16.2554 2.99993 17.25C2.99999 17.4555 2.95781 17.6589 2.87601 17.8474C2.79421 18.036 2.67453 18.2057 2.52441 18.3461C2.37429 18.4864 2.19692 18.5944 2.00331 18.6634C1.80971 18.7324 1.60399 18.7608 1.39893 18.747C1.26335 18.7379 1.12783 18.7658 1.00687 18.8277C0.885907 18.8896 0.784041 18.9833 0.712157 19.0986C0.640273 19.2139 0.601072 19.3466 0.598743 19.4825C0.596414 19.6183 0.631045 19.7523 0.698934 19.87C1.27582 20.8722 2.16745 21.6558 3.23537 22.0994C4.30329 22.5429 5.48776 22.6214 6.60488 22.3227C7.722 22.0241 8.70927 21.3649 9.4134 20.4477C10.1175 19.5304 10.4991 18.4064 10.4989 17.25C10.4989 16.7575 10.4019 16.2699 10.2135 15.8149C10.025 15.36 9.7488 14.9466 9.40058 14.5983C9.05236 14.2501 8.63897 13.9739 8.184 13.7855C7.72903 13.597 7.24239 13.5 6.74993 13.5Z" fill="#FC8A47"/>
</g>
</svg>
